{"asset":{"generator":"glTF-Transform v4.0.2","version":"2.0","copyright":"KbllrGraphics"},"accessors":[{"type":"SCALAR","componentType":5125,"count":143754,"bufferView":0,"byteOffset":0},{"type":"VEC3","componentType":5126,"count":136560,"max":[182.5310516357422,1027.75244140625,125.0002670288086],"min":[-2850.74951171875,-1259.9283447265625,-125.00037384033203],"bufferView":1,"byteOffset":0},{"type":"VEC3","componentType":5126,"count":136560,"bufferView":1,"byteOffset":12},{"type":"VEC2","componentType":5126,"count":136560,"bufferView":1,"byteOffset":24}],"bufferViews":[{"buffer":0,"byteOffset":0,"byteLength":575016,"target":34963},{"buffer":0,"byteOffset":575016,"byteLength":4369920,"byteStride":32,"target":34962}],"samplers":[{"magFilter":9729,"minFilter":9987,"wrapS":10497,"wrapT":10497}],"textures":[{"sampler":0,"extensions":{"EXT_texture_webp":{"source":0}}}],"images":[{"name":"a6_BrushedTranslucent_v4_Normal_20250423-212403","mimeType":"image/webp","uri":"normal.webp"}],"buffers":[{"uri":"scene-export.bin","byteLength":4944936}],"materials":[{"name":"BrushedTranslucent_v4","doubleSided":true,"pbrMetallicRoughness":{"baseColorFactor":[0,0,0,1],"roughnessFactor":0.2,"metallicFactor":0},"normalTexture":{"index":0},"extensions":{"KHR_materials_anisotropy":{"anisotropyStrength":0.699999988079071},"KHR_materials_ior":{"ior":1.4800000190734863},"KHR_materials_transmission":{"transmissionFactor":1}}}],"meshes":[{"name":"Mesh_2","primitives":[{"attributes":{"POSITION":1,"NORMAL":2,"TEXCOORD_0":3},"mode":4,"material":0,"indices":0}]}],"nodes":[{"name":"a1","translation":[133.33143615722656,12.5,-12.25800895690918],"rotation":[-0.70710688829422,0,0,0.7071066498756409],"scale":[0.10000000149011612,0.10000000894069672,0.10000000894069672],"mesh":0}],"scenes":[{"name":"Scene","nodes":[0]}],"scene":0,"extensionsUsed":["EXT_texture_webp","KHR_materials_anisotropy","KHR_materials_ior","KHR_materials_transmission"],"extensionsRequired":["EXT_texture_webp"]}