<svg width="2025" height="1627" viewBox="0 0 2025 1627" fill="none" xmlns="http://www.w3.org/2000/svg">
<g id="rooms">
<path id="Restrooms_exits_01" d="M859 2H1212C1215.31 2 1218 4.68629 1218 8V314C1218 317.314 1215.31 320 1212 320H859C855.686 320 853 317.314 853 314V8C853 4.68629 855.686 2 859 2Z" stroke="black" stroke-width="4" stroke-miterlimit="1.5" stroke-linecap="round" stroke-linejoin="round"/>
<path id="Restrooms_exits_02" d="M808 1246H1184C1187.31 1246 1190 1248.69 1190 1252V1619C1190 1622.31 1187.31 1625 1184 1625H808C804.686 1625 802 1622.31 802 1619V1252C802 1248.69 804.686 1246 808 1246Z" stroke="black" stroke-width="4" stroke-miterlimit="1.5" stroke-linecap="round" stroke-linejoin="round"/>
<path id="Oxygen" d="M8 2H738C741.314 2 744 4.6863 744 8V176C744 179.314 741.314 182 738 182H8.00002C4.68631 182 2 179.314 2 176V8C2 4.68629 4.68629 2 8 2Z" stroke="black" stroke-width="4" stroke-miterlimit="1.5" stroke-linecap="round" stroke-linejoin="round"/>
<path id="Lifts" d="M1399 678H1480C1483.31 678 1486 680.686 1486 684V858C1486 861.314 1483.31 864 1480 864H1399C1395.69 864 1393 861.314 1393 858V684C1393 680.686 1395.69 678 1399 678Z" stroke="black" stroke-width="4" stroke-miterlimit="1.5" stroke-linecap="round" stroke-linejoin="round"/>
<path id="Hydrogen" d="M8 850H273C276.314 850 279 852.686 279 856V1062C279 1065.31 276.314 1068 273 1068H8C4.68629 1068 2 1065.31 2 1062V856C2 852.686 4.68629 850 8 850Z" stroke="black" stroke-width="4" stroke-miterlimit="1.5" stroke-linecap="round" stroke-linejoin="round"/>
<path id="Cantina-Kitchen" d="M8 205H738C741.314 205 744 207.686 744 211V371C744 374.314 741.314 377 738 377H8.00002C4.68631 377 2 374.314 2 371V211C2 207.686 4.68629 205 8 205Z" stroke="black" stroke-width="4" stroke-miterlimit="1.5" stroke-linecap="round" stroke-linejoin="round"/>
<path id="Alexandria-Library" d="M580 809H815C818.314 809 821 811.686 821 815V1019C821 1022.31 818.314 1025 815 1025H580C576.686 1025 574 1022.31 574 1019V815C574 811.686 576.686 809 580 809Z" stroke="black" stroke-width="4" stroke-miterlimit="1.5" stroke-linecap="round" stroke-linejoin="round"/>
<path id="B23-Pluto_Family_Room" d="M1381 426H1507C1510.31 426 1513 428.686 1513 432V516C1513 519.314 1510.31 522 1507 522H1381C1377.69 522 1375 519.314 1375 516V432C1375 428.686 1377.69 426 1381 426Z" stroke="black" stroke-width="4" stroke-miterlimit="1.5" stroke-linecap="round" stroke-linejoin="round"/>
<path id="B22-Artemis-Student_SErvice_DEsk" d="M1532 426H1662C1665.31 426 1668 428.686 1668 432V516C1668 519.314 1665.31 522 1662 522H1532C1528.69 522 1526 519.314 1526 516V432C1526 428.686 1528.69 426 1532 426Z" stroke="black" stroke-width="4" stroke-miterlimit="1.5" stroke-linecap="round" stroke-linejoin="round"/>
<path id="B.19" d="M1231 426H1356C1359.31 426 1362 428.686 1362 432V552C1362 555.314 1359.31 558 1356 558H1231C1227.69 558 1225 555.314 1225 552V432C1225 428.686 1227.69 426 1231 426Z" stroke="black" stroke-width="4" stroke-miterlimit="1.5" stroke-linecap="round" stroke-linejoin="round"/>
<path id="B.18" d="M1088 426H1206C1209.31 426 1212 428.686 1212 432V554C1212 557.314 1209.31 560 1206 560H1088C1084.69 560 1082 557.314 1082 554V432C1082 428.686 1084.69 426 1088 426Z" stroke="black" stroke-width="4" stroke-miterlimit="1.5" stroke-linecap="round" stroke-linejoin="round"/>
<path id="B.17" d="M859 426H1063C1066.31 426 1069 428.686 1069 432V553C1069 556.314 1066.31 559 1063 559H859C855.686 559 853 556.314 853 553V432C853 428.686 855.686 426 859 426Z" stroke="black" stroke-width="4" stroke-miterlimit="1.5" stroke-linecap="round" stroke-linejoin="round"/>
<path id="B.16-Otter_Space" d="M712 426H815C818.314 426 821 428.686 821 432V512C821 515.314 818.314 518 815 518H712C708.686 518 706 515.314 706 512V432C706 428.686 708.686 426 712 426Z" stroke="black" stroke-width="4" stroke-miterlimit="1.5" stroke-linecap="round" stroke-linejoin="round"/>
<path id="B.15-Cape_Canaveral" d="M576 426H680C683.314 426 686 428.686 686 432V512C686 515.314 683.314 518 680 518H576C572.686 518 570 515.314 570 512V432C570 428.686 572.686 426 576 426Z" stroke="black" stroke-width="4" stroke-miterlimit="1.5" stroke-linecap="round" stroke-linejoin="round"/>
<path id="B.14-Dark_Matter" d="M580 537H815C818.314 537 821 539.686 821 543V789C821 792.314 818.314 795 815 795H580C576.686 795 574 792.314 574 789V543C574 539.686 576.686 537 580 537Z" stroke="black" stroke-width="4" stroke-miterlimit="1.5" stroke-linecap="round" stroke-linejoin="round"/>
<path id="B12-Hans_Zimmer" d="M580 1077H665C668.314 1077 671 1079.69 671 1083V1148C671 1151.31 668.314 1154 665 1154H580C576.686 1154 574 1151.31 574 1148V1083C574 1079.69 576.686 1077 580 1077Z" stroke="black" stroke-width="4" stroke-miterlimit="1.5" stroke-linecap="round" stroke-linejoin="round"/>
<path id="B10-MF_Room" d="M730 1077H815C818.314 1077 821 1079.69 821 1083V1148C821 1151.31 818.314 1154 815 1154H730C726.686 1154 724 1151.31 724 1148V1083C724 1079.69 726.686 1077 730 1077Z" stroke="black" stroke-width="4" stroke-miterlimit="1.5" stroke-linecap="round" stroke-linejoin="round"/>
<path id="B7-W(room)" d="M1000 1024H1082C1085.31 1024 1088 1026.69 1088 1030V1123C1088 1126.31 1085.31 1129 1082 1129H1000C996.686 1129 994 1126.31 994 1123V1030C994 1026.69 996.686 1024 1000 1024Z" stroke="black" stroke-width="4" stroke-miterlimit="1.5" stroke-linecap="round" stroke-linejoin="round"/>
<path id="B6-After" d="M1108 1024H1155C1158.31 1024 1161 1026.69 1161 1030V1123C1161 1126.31 1158.31 1129 1155 1129H1108C1104.69 1129 1102 1126.31 1102 1123V1030C1102 1026.69 1104.69 1024 1108 1024Z" stroke="black" stroke-width="4" stroke-miterlimit="1.5" stroke-linecap="round" stroke-linejoin="round"/>
<path id="B5-Present" d="M1181 1025H1266C1269.31 1025 1272 1027.69 1272 1031V1123C1272 1126.31 1269.31 1129 1266 1129H1181C1177.69 1129 1175 1126.31 1175 1123V1031C1175 1027.69 1177.69 1025 1181 1025Z" stroke="black" stroke-width="4" stroke-miterlimit="1.5" stroke-linecap="round" stroke-linejoin="round"/>
<path id="B4" d="M1292 1043H1401C1404.31 1043 1407 1045.69 1407 1049V1123C1407 1126.31 1404.31 1129 1401 1129H1292C1288.69 1129 1286 1126.31 1286 1123V1049C1286 1045.69 1288.69 1043 1292 1043Z" stroke="black" stroke-width="4" stroke-miterlimit="1.5" stroke-linecap="round" stroke-linejoin="round"/>
<path id="B3-Peace" d="M1427 1043H1541C1544.31 1043 1547 1045.69 1547 1049V1122C1547 1125.31 1544.31 1128 1541 1128H1427C1423.69 1128 1421 1125.31 1421 1122V1049C1421 1045.69 1423.69 1043 1427 1043Z" stroke="black" stroke-width="4" stroke-miterlimit="1.5" stroke-linecap="round" stroke-linejoin="round"/>
<path id="B2-Aang" d="M1399.19 919H1539.19C1542.44 919 1545.11 921.601 1545.18 924.859L1546.81 993.859C1546.89 997.227 1544.18 1000 1540.81 1000H1400.81C1397.56 1000 1394.89 997.399 1394.82 994.141L1393.19 925.141C1393.11 921.773 1395.82 919 1399.19 919Z" stroke="black" stroke-width="4" stroke-miterlimit="1.5" stroke-linecap="round" stroke-linejoin="round"/>
<path id="A.26" d="M1779 426H2017C2020.31 426 2023 428.686 2023 432V612C2023 615.314 2020.31 618 2017 618H1779C1775.69 618 1773 615.314 1773 612V432C1773 428.686 1775.69 426 1779 426Z" stroke="black" stroke-width="4" stroke-miterlimit="1.5" stroke-linecap="round" stroke-linejoin="round"/>
<path id="A.25" d="M1779 213H2017C2020.31 213 2023 215.686 2023 219V395C2023 398.314 2020.31 401 2017 401H1779C1775.69 401 1773 398.314 1773 395V219C1773 215.686 1775.69 213 1779 213Z" stroke="black" stroke-width="4" stroke-miterlimit="1.5" stroke-linecap="round" stroke-linejoin="round"/>
<path id="A24-Pandora" d="M1720 2H2017C2020.31 2 2023 4.68629 2023 8V182C2023 185.314 2020.31 188 2017 188H1720C1716.69 188 1714 185.314 1714 182V8C1714 4.68629 1716.69 2 1720 2Z" stroke="black" stroke-width="4" stroke-miterlimit="1.5" stroke-linecap="round" stroke-linejoin="round"/>
<path id="A.23" d="M931 678H1287C1290.31 678 1293 680.686 1293 684V928C1293 931.314 1290.31 934 1287 934H931C927.686 934 925 931.314 925 928V684C925 680.686 927.686 678 931 678Z" stroke="black" stroke-width="4" stroke-miterlimit="1.5" stroke-linecap="round" stroke-linejoin="round"/>
<path id="A14-Houston" d="M299 426H533C536.314 426 539 428.686 539 432V835C539 838.314 536.314 841 533 841H299C295.686 841 293 838.314 293 835V432C293 428.686 295.686 426 299 426Z" stroke="black" stroke-width="4" stroke-miterlimit="1.5" stroke-linecap="round" stroke-linejoin="round"/>
<path id="A11-A12-TETandRIS" d="M625 1352.29V1619C625 1622.31 622.314 1625 619 1625H299C295.686 1625 293 1622.31 293 1619V1344.29V1083C293 1079.69 295.686 1077 299 1077H517.225C520.539 1077 523.225 1079.69 523.225 1083V1336.29C523.225 1341.81 527.702 1346.29 533.225 1346.29H619C622.314 1346.29 625 1348.97 625 1352.29Z" stroke="black" stroke-width="4" stroke-miterlimit="1.5" stroke-linecap="round" stroke-linejoin="round"/>
<path id="A.6-Muted" d="M1221 1221H1403C1406.31 1221 1409 1223.69 1409 1227V1619C1409 1622.31 1406.31 1625 1403 1625H1221C1217.69 1625 1215 1622.31 1215 1619V1227C1215 1223.69 1217.69 1221 1221 1221Z" stroke="black" stroke-width="4" stroke-miterlimit="1.5" stroke-linecap="round" stroke-linejoin="round"/>
<path id="A5-Makers_Space" d="M1434 1349H1573C1576.31 1349 1579 1351.69 1579 1355V1619C1579 1622.31 1576.31 1625 1573 1625H1434C1430.69 1625 1428 1622.31 1428 1619V1355C1428 1351.69 1430.69 1349 1434 1349Z" stroke="black" stroke-width="4" stroke-miterlimit="1.5" stroke-linecap="round" stroke-linejoin="round"/>
<path id="A3-Hive" d="M2023 1181V1619C2023 1622.31 2020.31 1625 2017 1625H1604C1600.69 1625 1598 1622.31 1598 1619V1353.26C1598 1349.94 1600.69 1347.26 1604 1347.26H1769.85C1775.37 1347.26 1779.85 1342.78 1779.85 1337.26V1181C1779.85 1177.69 1782.54 1175 1785.85 1175H2017C2020.31 1175 2023 1177.69 2023 1181Z" stroke="black" stroke-width="4" stroke-miterlimit="1.5" stroke-linecap="round" stroke-linejoin="round"/>
<path id="A.2-Jungle" d="M1779 840H2017C2020.31 840 2023 842.686 2023 846V1141C2023 1144.31 2020.31 1147 2017 1147H1779C1775.69 1147 1773 1144.31 1773 1141V846C1773 842.686 1775.69 840 1779 840Z" stroke="black" stroke-width="4" stroke-miterlimit="1.5" stroke-linecap="round" stroke-linejoin="round"/>
<path id="A1-Babylon" d="M1779 643H2017C2020.31 643 2023 645.686 2023 649V809C2023 812.314 2020.31 815 2017 815H1779C1775.69 815 1773 812.314 1773 809V649C1773 645.686 1775.69 643 1779 643Z" stroke="black" stroke-width="4" stroke-miterlimit="1.5" stroke-linecap="round" stroke-linejoin="round"/>
</g>
</svg>
