<svg
    width="2025"
    height="1628"
    viewBox="0 0 2025 1628"
    fill="none"
    xmlns="http://www.w3.org/2000/svg"
>
<g id="campus-floormap">
<g id="rooms">
<path
                id="Restrooms_exits_01"
                d="M859 2H1212C1215.31 2 1218 4.68629 1218 8V315.023C1218 318.337 1215.31 321.023 1212 321.023H859C855.686 321.023 853 318.337 853 315.023V8L853.008 7.69141C853.168 4.52111 855.79 2 859 2Z"
                stroke="black"
                stroke-width="4"
                stroke-miterlimit="1.5"
                stroke-linecap="round"
                stroke-linejoin="round"
            />
<path
                id="Restrooms_exits_02"
                d="M808 1246.25H1184C1187.31 1246.25 1190 1248.94 1190 1252.25V1619.77C1190 1623.08 1187.31 1625.77 1184 1625.77H808C804.686 1625.77 802 1623.08 802 1619.77V1252.25C802 1248.94 804.686 1246.25 808 1246.25Z"
                stroke="black"
                stroke-width="4"
                stroke-miterlimit="1.5"
                stroke-linecap="round"
                stroke-linejoin="round"
            />
<path
                id="Oxygen"
                d="M8 2.23749H738C741.314 2.23752 744 4.92381 744 8.23749V176.785C744 180.099 741.314 182.785 738 182.785H8C4.68629 182.785 2 180.099 2 176.785V8.23749C2.00001 4.92378 4.6863 2.23749 8 2.23749Z"
                stroke="black"
                stroke-width="4"
                stroke-miterlimit="1.5"
                stroke-linecap="round"
                stroke-linejoin="round"
            />
<path
                id="Lifts"
                d="M1399 678.38H1480C1483.31 678.38 1486 681.066 1486 684.38V858.643C1486 861.957 1483.31 864.643 1480 864.643H1399C1395.69 864.643 1393 861.957 1393 858.643V684.38C1393 681.066 1395.69 678.38 1399 678.38Z"
                stroke="black"
                stroke-width="4"
                stroke-miterlimit="1.5"
                stroke-linecap="round"
                stroke-linejoin="round"
            />
<path
                id="hydrogen"
                data-name="Hydrogen Lab"
                data-category="Lab"
                d="M8 850.814H273C276.314 850.814 279 853.501 279 856.814V1062.21C279 1065.52 276.314 1068.21 273 1068.21H8C4.68629 1068.21 2 1065.52 2 1062.21V856.814C2 853.501 4.68629 850.814 8 850.814Z"
                stroke="black"
                stroke-width="4"
                stroke-miterlimit="1.5"
                stroke-linecap="round"
                stroke-linejoin="round"
            />
<path
                id="kitchen"
                data-name="Cantina Kitchen"
                data-category="Service"
                d="M8 205.916H738C741.314 205.916 744 208.602 744 211.916V371.107C744 374.421 741.314 377.107 738 377.107H8C4.68629 377.107 2 374.421 2 371.107V211.916C2 208.602 4.68629 205.916 8 205.916Z"
                stroke="black"
                stroke-width="4"
                stroke-miterlimit="1.5"
                stroke-linecap="round"
                stroke-linejoin="round"
            />
<path
                id="library"
                data-name="Alexandria Library"
                data-category="Common"
                d="M580 809.417H815C818.314 809.417 821 812.103 821 815.417V1019.61C821 1022.92 818.314 1025.61 815 1025.61H580C576.686 1025.61 574 1022.92 574 1019.61V815.417C574 812.103 576.686 809.417 580 809.417Z"
                stroke="black"
                stroke-width="4"
                stroke-miterlimit="1.5"
                stroke-linecap="round"
                stroke-linejoin="round"
            />
<path
                id="b.23"
                data-name="Pluto Family Room"
                data-category="Common"
                d="M1381 426.394H1507C1510.31 426.394 1513 429.08 1513 432.394V516.629C1513 519.943 1510.31 522.629 1507 522.629H1381C1377.69 522.629 1375 519.943 1375 516.629V432.394C1375 429.08 1377.69 426.394 1381 426.394Z"
                stroke="black"
                stroke-width="4"
                stroke-miterlimit="1.5"
                stroke-linecap="round"
                stroke-linejoin="round"
            />
<path
                id="b.22"
                data-name="Artemis Student Service Desk"
                data-category="Service"
                d="M1532 426.454H1662C1665.31 426.454 1668 429.141 1668 432.454V516.569C1668 519.882 1665.31 522.569 1662 522.569H1532C1528.69 522.569 1526 519.882 1526 516.569V432.454C1526 429.141 1528.69 426.454 1532 426.454Z"
                stroke="black"
                stroke-width="4"
                stroke-miterlimit="1.5"
                stroke-linecap="round"
                stroke-linejoin="round"
            />
<path
                id="b.19"
                data-name="Classroom B.19"
                data-category="Classroom"
                d="M1231 426.231H1356C1359.31 426.231 1362 428.917 1362 432.231V552.792C1362 556.105 1359.31 558.792 1356 558.792H1231C1227.69 558.792 1225 556.105 1225 552.792V432.231L1225.01 431.923C1225.17 428.752 1227.79 426.231 1231 426.231Z"
                stroke="black"
                stroke-width="4"
                stroke-miterlimit="1.5"
                stroke-linecap="round"
                stroke-linejoin="round"
            />
<path
                id="b.18"
                data-name="Classroom B.18"
                data-category="Classroom"
                d="M1088 426.644H1206C1209.31 426.644 1212 429.33 1212 432.644V554.379C1212 557.693 1209.31 560.38 1206 560.38H1088C1084.69 560.38 1082 557.693 1082 554.38V432.644C1082 429.33 1084.69 426.644 1088 426.644Z"
                stroke="black"
                stroke-width="4"
                stroke-miterlimit="1.5"
                stroke-linecap="round"
                stroke-linejoin="round"
            />
<path
                id="b.17"
                data-name="Classroom B.17"
                data-category="Classroom"
                d="M859 426.845H1063C1066.31 426.845 1069 429.531 1069 432.845V553.179C1069 556.492 1066.31 559.179 1063 559.179H859C855.686 559.179 853 556.492 853 553.179V432.845C853 429.531 855.686 426.845 859 426.845Z"
                stroke="black"
                stroke-width="4"
                stroke-miterlimit="1.5"
                stroke-linecap="round"
                stroke-linejoin="round"
            />
<path
                id="b.16"
                data-name="Otter Space"
                data-category="Classroom"
                d="M712 426.541H815C818.314 426.541 821 429.227 821 432.541V512.482C821 515.796 818.314 518.482 815 518.482H712C708.686 518.482 706 515.796 706 512.482V432.541C706 429.227 708.686 426.541 712 426.541Z"
                stroke="black"
                stroke-width="4"
                stroke-miterlimit="1.5"
                stroke-linecap="round"
                stroke-linejoin="round"
            />
<path
                id="b.15"
                data-name="Cape Canaveral"
                data-category="Classroom"
                d="M576 426.138H680C683.314 426.138 686 428.824 686 432.138V512.886C686 516.199 683.314 518.886 680 518.886H576C572.686 518.886 570 516.199 570 512.886V432.138C570 428.824 572.686 426.138 576 426.138Z"
                stroke="black"
                stroke-width="4"
                stroke-miterlimit="1.5"
                stroke-linecap="round"
                stroke-linejoin="round"
            />
<path
                id="b.14"
                data-name="Dark Matter"
                data-category="Classroom"
                d="M580 537.511H815C818.314 537.511 821 540.198 821 543.511V789.511C821 792.825 818.314 795.511 815 795.511H580C576.686 795.511 574 792.825 574 789.511V543.511C574 540.198 576.686 537.511 580 537.511Z"
                stroke="black"
                stroke-width="4"
                stroke-miterlimit="1.5"
                stroke-linecap="round"
                stroke-linejoin="round"
            />
<path
                id="b.12"
                data-name="Hans Zimmer"
                data-category="Classroom"
                d="M580 1077.51H665C668.314 1077.51 671 1080.2 671 1083.51V1148.51C671 1151.83 668.314 1154.51 665 1154.51H580C576.686 1154.51 574 1151.83 574 1148.51V1083.51C574 1080.2 576.686 1077.51 580 1077.51Z"
                stroke="black"
                stroke-width="4"
                stroke-miterlimit="1.5"
                stroke-linecap="round"
                stroke-linejoin="round"
            />
<path
                id="b.10"
                data-name="MF Room"
                data-category="Classroom"
                d="M730 1077.51H815C818.314 1077.51 821 1080.2 821 1083.51V1148.51C821 1151.83 818.314 1154.51 815 1154.51H730C726.686 1154.51 724 1151.83 724 1148.51V1083.51C724 1080.2 726.686 1077.51 730 1077.51Z"
                stroke="black"
                stroke-width="4"
                stroke-miterlimit="1.5"
                stroke-linecap="round"
                stroke-linejoin="round"
            />
<path
                id="b.7"
                data-name="W Room"
                data-category="Classroom"
                d="M1000 1024.58H1082C1085.31 1024.58 1088 1027.27 1088 1030.58V1123.44C1088 1126.76 1085.31 1129.44 1082 1129.44H1000C996.686 1129.44 994 1126.75 994 1123.44V1030.58C994 1027.27 996.686 1024.58 1000 1024.58Z"
                stroke="black"
                stroke-width="4"
                stroke-miterlimit="1.5"
                stroke-linecap="round"
                stroke-linejoin="round"
            />
<path
                id="b.6"
                data-name="After"
                data-category="Classroom"
                d="M1108 1024.28H1155C1158.31 1024.28 1161 1026.97 1161 1030.28V1123.74C1161 1127.05 1158.31 1129.74 1155 1129.74H1108C1104.69 1129.74 1102 1127.05 1102 1123.74V1030.28C1102 1026.97 1104.69 1024.28 1108 1024.28Z"
                stroke="black"
                stroke-width="4"
                stroke-miterlimit="1.5"
                stroke-linecap="round"
                stroke-linejoin="round"
            />
<path
                id="b.5"
                data-name="Present"
                data-category="Classroom"
                d="M1181 1025.43H1266C1269.31 1025.43 1272 1028.12 1272 1031.43V1123.59C1272 1126.9 1269.31 1129.59 1266 1129.59H1181C1177.69 1129.59 1175 1126.9 1175 1123.59V1031.43C1175 1028.12 1177.69 1025.43 1181 1025.43Z"
                stroke="black"
                stroke-width="4"
                stroke-miterlimit="1.5"
                stroke-linecap="round"
                stroke-linejoin="round"
            />
<path
                id="b.4"
                data-name="Classroom B4"
                data-category="Classroom"
                d="M1292 1043.51H1401C1404.31 1043.51 1407 1046.2 1407 1049.51V1123.51C1407 1126.83 1404.31 1129.51 1401 1129.51H1292C1288.69 1129.51 1286 1126.83 1286 1123.51V1049.51C1286 1046.2 1288.69 1043.51 1292 1043.51Z"
                stroke="black"
                stroke-width="4"
                stroke-miterlimit="1.5"
                stroke-linecap="round"
                stroke-linejoin="round"
            />
<path
                id="b.3"
                data-name="Peace"
                data-category="Classroom"
                d="M1427 1043.51H1541C1544.31 1043.51 1547 1046.2 1547 1049.51V1122.51C1547 1125.83 1544.31 1128.51 1541 1128.51H1427C1423.69 1128.51 1421 1125.83 1421 1122.51V1049.51C1421 1046.2 1423.69 1043.51 1427 1043.51Z"
                stroke="black"
                stroke-width="4"
                stroke-miterlimit="1.5"
                stroke-linecap="round"
                stroke-linejoin="round"
            />
<path
                id="b.2"
                data-name="Aang"
                data-category="Classroom"
                d="M1399.19 919.512H1539.19C1542.44 919.512 1545.11 922.112 1545.18 925.37L1546.81 994.37C1546.89 997.738 1544.18 1000.51 1540.81 1000.51H1400.81C1397.56 1000.51 1394.89 997.911 1394.82 994.653L1393.19 925.653C1393.11 922.285 1395.82 919.512 1399.19 919.512Z"
                stroke="black"
                stroke-width="4"
                stroke-miterlimit="1.5"
                stroke-linecap="round"
                stroke-linejoin="round"
            />
<path
                id="a.26"
                data-name="Classroom A.26"
                data-category="Classroom"
                d="M1779 426.471H2017C2020.31 426.471 2023 429.158 2023 432.471V612.551C2023 615.865 2020.31 618.551 2017 618.551H1779C1775.69 618.551 1773 615.865 1773 612.551V432.471C1773 429.158 1775.69 426.471 1779 426.471Z"
                stroke="black"
                stroke-width="4"
                stroke-miterlimit="1.5"
                stroke-linecap="round"
                stroke-linejoin="round"
            />
<path
                id="a.25"
                data-name="Classroom A.25"
                data-category="Classroom"
                d="M1779 213.685H2017C2020.31 213.685 2023 216.371 2023 219.685V395.338C2023 398.652 2020.31 401.338 2017 401.338H1779C1775.69 401.338 1773 398.652 1773 395.338V219.685C1773 216.371 1775.69 213.685 1779 213.685Z"
                stroke="black"
                stroke-width="4"
                stroke-miterlimit="1.5"
                stroke-linecap="round"
                stroke-linejoin="round"
            />
<path
                id="a.24"
                data-name="Pandora"
                data-category="Conceptual Realm"
                d="M1720 2.79092H2017C2020.31 2.79092 2023 5.47722 2023 8.79092V182.232C2023 185.546 2020.31 188.232 2017 188.232H1720C1716.69 188.232 1714 185.546 1714 182.232V8.79092C1714 5.47722 1716.69 2.79092 1720 2.79092Z"
                stroke="black"
                stroke-width="4"
                stroke-miterlimit="1.5"
                stroke-linecap="round"
                stroke-linejoin="round"
            />
<path
                id="a.23"
                data-name="Lecture Hall"
                data-category="Lab"
                d="M931 678.511H1287C1290.31 678.511 1293 681.198 1293 684.511V928.511C1293 931.825 1290.31 934.511 1287 934.511H931C927.686 934.511 925 931.825 925 928.511V684.511C925 681.198 927.686 678.511 931 678.511Z"
                stroke="black"
                stroke-width="4"
                stroke-miterlimit="1.5"
                stroke-linecap="round"
                stroke-linejoin="round"
            />
<path
                id="a.14"
                data-name="Houston"
                data-category="Lab"
                d="M299 426.512H533C536.314 426.512 539 429.198 539 432.512V835.512C539 838.825 536.314 841.512 533 841.512H299C295.686 841.512 293 838.825 293 835.512V432.512C293 429.198 295.686 426.512 299 426.512Z"
                stroke="black"
                stroke-width="4"
                stroke-miterlimit="1.5"
                stroke-linecap="round"
                stroke-linejoin="round"
            />
<path
                id="a.11"
                data-name="A11 (TET and RIS)"
                data-category="Lab"
                d="M299 1077.51H517.226C520.539 1077.51 523.226 1080.2 523.226 1083.51V1336.8C523.226 1342.32 527.703 1346.8 533.226 1346.8H619C622.314 1346.8 625 1349.49 625 1352.8V1619.51C625 1622.83 622.314 1625.51 619 1625.51H299C295.686 1625.51 293 1622.83 293 1619.51V1083.51C293 1080.2 295.686 1077.51 299 1077.51Z"
                stroke="black"
                stroke-width="4"
                stroke-miterlimit="1.5"
                stroke-linecap="round"
                stroke-linejoin="round"
            />
<path
                id="a.6"
                data-name="Muted"
                data-category="Conceptual Realm"
                d="M1221 1222.43H1403C1406.31 1222.43 1409 1225.12 1409 1228.43V1618.59C1409 1621.91 1406.31 1624.59 1403 1624.59H1221C1217.69 1624.59 1215 1621.91 1215 1618.59V1228.43C1215 1225.12 1217.69 1222.43 1221 1222.43Z"
                stroke="black"
                stroke-width="4"
                stroke-miterlimit="1.5"
                stroke-linecap="round"
                stroke-linejoin="round"
            />
<path
                id="makerspace"
                data-name="Makers Space"
                data-category="Lab"
                d="M1434 1349.51H1573C1576.31 1349.51 1579 1352.2 1579 1355.51V1619.51C1579 1622.83 1576.31 1625.51 1573 1625.51H1434C1430.69 1625.51 1428 1622.83 1428 1619.51V1355.51C1428 1352.2 1430.69 1349.51 1434 1349.51Z"
                stroke="black"
                stroke-width="4"
                stroke-miterlimit="1.5"
                stroke-linecap="round"
                stroke-linejoin="round"
            />
<path
                id="a.3"
                data-name="Hive"
                data-category="Conceptual Realm"
                d="M1785.85 1175.51H2017C2020.31 1175.51 2023 1178.2 2023 1181.51V1619.51C2023 1622.83 2020.31 1625.51 2017 1625.51H1604C1600.69 1625.51 1598 1622.83 1598 1619.51V1353.77C1598 1350.46 1600.69 1347.77 1604 1347.77H1769.85C1775.37 1347.77 1779.85 1343.29 1779.85 1337.77V1181.51C1779.85 1178.2 1782.54 1175.51 1785.85 1175.51Z"
                stroke="black"
                stroke-width="4"
                stroke-miterlimit="1.5"
                stroke-linecap="round"
                stroke-linejoin="round"
            />
<path
                id="a.2"
                data-name="Jungle"
                data-category="Conceptual Realm"
                d="M1779 840.648H2017C2020.31 840.648 2023 843.334 2023 846.648V1141.38C2023 1144.69 2020.31 1147.38 2017 1147.38H1779C1775.69 1147.38 1773 1144.69 1773 1141.38V846.648C1773 843.334 1775.69 840.648 1779 840.648Z"
                stroke="black"
                stroke-width="4"
                stroke-miterlimit="1.5"
                stroke-linecap="round"
                stroke-linejoin="round"
            />
<path
                id="a.1"
                data-name="Babylon"
                data-category="Conceptual Realm"
                d="M1779 643.543H2017C2020.31 643.543 2023 646.23 2023 649.543V809.48C2023 812.793 2020.31 815.48 2017 815.48H1779C1775.69 815.48 1773 812.793 1773 809.48V649.543C1773 646.23 1775.69 643.543 1779 643.543Z"
                stroke="black"
                stroke-width="4"
                stroke-miterlimit="1.5"
                stroke-linecap="round"
                stroke-linejoin="round"
            />
</g>
</g>
</svg>
