<svg width="2033" height="1636" viewBox="0 0 2033 1636" fill="none" xmlns="http://www.w3.org/2000/svg">
<g id="dbugmap-1">
<g id="rooms">
<path id="Restrooms_exits_01" d="M817 4H1170C1174.42 4 1178 7.58172 1178 12V319.023C1178 323.441 1174.42 327.023 1170 327.023H817C812.582 327.023 809 323.441 809 319.023V12C809 7.58172 812.582 4 817 4Z" fill="white" stroke="#CCFF00" stroke-width="8" stroke-miterlimit="1.5" stroke-linecap="round" stroke-linejoin="round" stroke-dasharray="16 16"/>
<path id="Restrooms_exits_02" d="M845 1248.25H1221C1225.42 1248.25 1229 1251.84 1229 1256.25V1623.77C1229 1628.19 1225.42 1631.77 1221 1631.77H845C840.582 1631.77 837 1628.19 837 1623.77V1256.25C837 1251.84 840.582 1248.25 845 1248.25Z" fill="white" stroke="#CCFF00" stroke-width="8" stroke-miterlimit="1.5" stroke-linecap="round" stroke-linejoin="round" stroke-dasharray="16 16"/>
<path id="Oxygen" d="M1291 4.23755H2021C2025.42 4.23755 2029 7.81928 2029 12.2376V180.786C2029 185.204 2025.42 188.786 2021 188.786H1291C1286.58 188.786 1283 185.204 1283 180.786V12.2375C1283 7.81927 1286.58 4.23755 1291 4.23755Z" fill="white" stroke="#CCFF00" stroke-width="8" stroke-miterlimit="1.5" stroke-linecap="round" stroke-linejoin="round" stroke-dasharray="16 16"/>
<path id="Lifts" d="M549 680.38H630C634.418 680.38 638 683.961 638 688.38V862.643C638 867.061 634.418 870.643 630 870.643H549C544.582 870.643 541 867.061 541 862.643V688.38C541 683.961 544.582 680.38 549 680.38Z" fill="white" stroke="#CCFF00" stroke-width="8" stroke-miterlimit="1.5" stroke-linecap="round" stroke-linejoin="round" stroke-dasharray="16 16"/>
<path id="Hydrogen" d="M1756 852.814H2021C2025.42 852.814 2029 856.396 2029 860.814V1066.21C2029 1070.63 2025.42 1074.21 2021 1074.21H1756C1751.58 1074.21 1748 1070.63 1748 1066.21V860.814C1748 856.396 1751.58 852.814 1756 852.814Z" fill="white" stroke="#CCFF00" stroke-width="8" stroke-miterlimit="1.5" stroke-linecap="round" stroke-linejoin="round" stroke-dasharray="16 16"/>
<path id="Cantina-Kitchen" d="M1291 207.916H2021C2025.42 207.916 2029 211.497 2029 215.916V375.107C2029 379.526 2025.42 383.107 2021 383.107H1291C1286.58 383.107 1283 379.526 1283 375.107V215.916C1283 211.497 1286.58 207.916 1291 207.916Z" fill="white" stroke="#CCFF00" stroke-width="8" stroke-miterlimit="1.5" stroke-linecap="round" stroke-linejoin="round" stroke-dasharray="16 16"/>
<path id="Alexandria-Library" d="M1214 811.417H1449C1453.42 811.417 1457 814.998 1457 819.417V1023.61C1457 1028.02 1453.42 1031.61 1449 1031.61H1214C1209.58 1031.61 1206 1028.02 1206 1023.61V819.417C1206 814.998 1209.58 811.417 1214 811.417Z" fill="white" stroke="#CCFF00" stroke-width="8" stroke-miterlimit="1.5" stroke-linecap="round" stroke-linejoin="round" stroke-dasharray="16 16"/>
<path id="B23-Pluto_Family_Room" d="M522 428.394H648C652.418 428.394 656 431.976 656 436.394V520.629C656 525.047 652.418 528.629 648 528.629H522C517.582 528.629 514 525.047 514 520.629V436.394C514 431.976 517.582 428.394 522 428.394Z" fill="white" stroke="#CCFF00" stroke-width="8" stroke-miterlimit="1.5" stroke-linecap="round" stroke-linejoin="round" stroke-dasharray="16 16"/>
<path id="B22-Artemis-Student_SErvice_DEsk" d="M367 428.454H497C501.418 428.454 505 432.036 505 436.454V520.569C505 524.987 501.418 528.569 497 528.569H367C362.582 528.569 359 524.987 359 520.569V436.454C359 432.036 362.582 428.454 367 428.454Z" fill="white" stroke="#CCFF00" stroke-width="8" stroke-miterlimit="1.5" stroke-linecap="round" stroke-linejoin="round" stroke-dasharray="16 16"/>
<path id="B.19" d="M673 428.231H798C802.418 428.231 806 431.813 806 436.231V556.792C806 561.21 802.418 564.792 798 564.792H673C668.582 564.792 665 561.21 665 556.792V436.231C665 431.813 668.582 428.231 673 428.231Z" fill="white" stroke="#CCFF00" stroke-width="8" stroke-miterlimit="1.5" stroke-linecap="round" stroke-linejoin="round" stroke-dasharray="16 16"/>
<path id="B.18" d="M823 428.644H941C945.418 428.644 949 432.225 949 436.644V558.379C949 562.798 945.418 566.379 941 566.379H823C818.582 566.379 815 562.798 815 558.379V436.644C815 432.225 818.582 428.644 823 428.644Z" fill="white" stroke="#CCFF00" stroke-width="8" stroke-miterlimit="1.5" stroke-linecap="round" stroke-linejoin="round" stroke-dasharray="16 16"/>
<path id="B.17" d="M966 428.844H1170C1174.42 428.844 1178 432.426 1178 436.844V557.178C1178 561.597 1174.42 565.178 1170 565.178H966C961.582 565.178 958 561.597 958 557.178V436.844C958 432.426 961.582 428.844 966 428.844Z" fill="white" stroke="#CCFF00" stroke-width="8" stroke-miterlimit="1.5" stroke-linecap="round" stroke-linejoin="round" stroke-dasharray="16 16"/>
<path id="B.16-Otter_Space" d="M1214 428.541H1317C1321.42 428.541 1325 432.122 1325 436.541V516.482C1325 520.901 1321.42 524.482 1317 524.482H1214C1209.58 524.482 1206 520.901 1206 516.482V436.541C1206 432.122 1209.58 428.541 1214 428.541Z" fill="white" stroke="#CCFF00" stroke-width="8" stroke-miterlimit="1.5" stroke-linecap="round" stroke-linejoin="round" stroke-dasharray="16 16"/>
<path id="B.15-Cape_Canaveral" d="M1349 428.137H1453C1457.42 428.137 1461 431.719 1461 436.137V516.885C1461 521.304 1457.42 524.885 1453 524.885H1349C1344.58 524.885 1341 521.304 1341 516.885V436.137C1341 431.719 1344.58 428.137 1349 428.137Z" fill="white" stroke="#CCFF00" stroke-width="8" stroke-miterlimit="1.5" stroke-linecap="round" stroke-linejoin="round" stroke-dasharray="16 16"/>
<path id="B.14-Dark_Matter" d="M1214 539.511H1449C1453.42 539.511 1457 543.093 1457 547.511V793.511C1457 797.93 1453.42 801.511 1449 801.511H1214C1209.58 801.511 1206 797.93 1206 793.511V547.511C1206 543.093 1209.58 539.511 1214 539.511Z" fill="white" stroke="#CCFF00" stroke-width="8" stroke-miterlimit="1.5" stroke-linecap="round" stroke-linejoin="round" stroke-dasharray="16 16"/>
<path id="B12-Hans_Zimmer" d="M1364 1079.51H1449C1453.42 1079.51 1457 1083.09 1457 1087.51V1152.51C1457 1156.93 1453.42 1160.51 1449 1160.51H1364C1359.58 1160.51 1356 1156.93 1356 1152.51V1087.51C1356 1083.09 1359.58 1079.51 1364 1079.51Z" fill="white" stroke="#CCFF00" stroke-width="8" stroke-miterlimit="1.5" stroke-linecap="round" stroke-linejoin="round" stroke-dasharray="16 16"/>
<path id="B10-MF_Room" d="M1214 1079.51H1299C1303.42 1079.51 1307 1083.09 1307 1087.51V1152.51C1307 1156.93 1303.42 1160.51 1299 1160.51H1214C1209.58 1160.51 1206 1156.93 1206 1152.51V1087.51C1206 1083.09 1209.58 1079.51 1214 1079.51Z" fill="white" stroke="#CCFF00" stroke-width="8" stroke-miterlimit="1.5" stroke-linecap="round" stroke-linejoin="round" stroke-dasharray="16 16"/>
<path id="B7-W(room)" d="M947 1026.58H1029C1033.42 1026.58 1037 1030.16 1037 1034.58V1127.44C1037 1131.86 1033.42 1135.44 1029 1135.44H947C942.582 1135.44 939 1131.86 939 1127.44V1034.58C939 1030.16 942.582 1026.58 947 1026.58Z" fill="white" stroke="#CCFF00" stroke-width="8" stroke-miterlimit="1.5" stroke-linecap="round" stroke-linejoin="round" stroke-dasharray="16 16"/>
<path id="B6-After" d="M874 1026.28H921C925.418 1026.28 929 1029.87 929 1034.28V1127.74C929 1132.16 925.418 1135.74 921 1135.74H874C869.582 1135.74 866 1132.16 866 1127.74V1034.28C866 1029.87 869.582 1026.28 874 1026.28Z" fill="white" stroke="#CCFF00" stroke-width="8" stroke-miterlimit="1.5" stroke-linecap="round" stroke-linejoin="round" stroke-dasharray="16 16"/>
<path id="B5-Present" d="M763 1027.43H848C852.418 1027.43 856 1031.02 856 1035.43V1127.59C856 1132.01 852.418 1135.59 848 1135.59H763C758.582 1135.59 755 1132.01 755 1127.59V1035.43C755 1031.02 758.582 1027.43 763 1027.43Z" fill="white" stroke="#CCFF00" stroke-width="8" stroke-miterlimit="1.5" stroke-linecap="round" stroke-linejoin="round" stroke-dasharray="16 16"/>
<path id="B4" d="M628 1045.51H737C741.418 1045.51 745 1049.09 745 1053.51V1127.51C745 1131.93 741.418 1135.51 737 1135.51H628C623.582 1135.51 620 1131.93 620 1127.51V1053.51C620 1049.09 623.582 1045.51 628 1045.51Z" fill="white" stroke="#CCFF00" stroke-width="8" stroke-miterlimit="1.5" stroke-linecap="round" stroke-linejoin="round" stroke-dasharray="16 16"/>
<path id="B3-Peace" d="M488 1045.51H602C606.418 1045.51 610 1049.09 610 1053.51V1126.51C610 1130.93 606.418 1134.51 602 1134.51H488C483.582 1134.51 480 1130.93 480 1126.51V1053.51C480 1049.09 483.582 1045.51 488 1045.51Z" fill="white" stroke="#CCFF00" stroke-width="8" stroke-miterlimit="1.5" stroke-linecap="round" stroke-linejoin="round" stroke-dasharray="16 16"/>
<path id="B2-Aang" d="M489.814 921.511H629.81C634.302 921.511 637.913 925.209 637.807 929.7L636.184 998.7C636.082 1003.04 632.531 1006.51 628.186 1006.51H488.19C483.699 1006.51 480.087 1002.81 480.193 998.323L481.816 929.323C481.918 924.98 485.469 921.511 489.814 921.511Z" fill="white" stroke="#CCFF00" stroke-width="8" stroke-miterlimit="1.5" stroke-linecap="round" stroke-linejoin="round" stroke-dasharray="16 16"/>
<path id="A.26" d="M12 428.471H250C254.418 428.471 258 432.053 258 436.471V616.552C258 620.97 254.418 624.552 250 624.552H12C7.58173 624.552 4 620.97 4 616.552V436.471C4 432.053 7.58171 428.471 12 428.471Z" fill="white" stroke="#CCFF00" stroke-width="8" stroke-miterlimit="1.5" stroke-linecap="round" stroke-linejoin="round" stroke-dasharray="16 16"/>
<path id="A.25" d="M12 215.685H250C254.418 215.685 258 219.267 258 223.685V399.338C258 403.756 254.418 407.338 250 407.338H12C7.58173 407.338 4 403.756 4 399.338V223.685C4 219.267 7.58171 215.685 12 215.685Z" fill="white" stroke="#CCFF00" stroke-width="8" stroke-miterlimit="1.5" stroke-linecap="round" stroke-linejoin="round" stroke-dasharray="16 16"/>
<path id="A24-Pandora" d="M12 4.79102H309C313.418 4.79102 317 8.37275 317 12.791V186.232C317 190.65 313.418 194.232 309 194.232H12C7.58173 194.232 4 190.65 4 186.232V12.791C4 8.37274 7.58173 4.79102 12 4.79102Z" fill="white" stroke="#CCFF00" stroke-width="8" stroke-miterlimit="1.5" stroke-linecap="round" stroke-linejoin="round" stroke-dasharray="16 16"/>
<path id="A.23" d="M742 680.511H1098C1102.42 680.511 1106 684.093 1106 688.511V932.511C1106 936.93 1102.42 940.511 1098 940.511H742C737.582 940.511 734 936.93 734 932.511V688.511C734 684.093 737.582 680.511 742 680.511Z" fill="white" stroke="#CCFF00" stroke-width="8" stroke-miterlimit="1.5" stroke-linecap="round" stroke-linejoin="round" stroke-dasharray="16 16"/>
<path id="A14-Houston" d="M1496 428.511H1730C1734.42 428.511 1738 432.093 1738 436.511V839.511C1738 843.93 1734.42 847.511 1730 847.511H1496C1491.58 847.511 1488 843.93 1488 839.511V436.511C1488 432.093 1491.58 428.511 1496 428.511Z" fill="white" stroke="#CCFF00" stroke-width="8" stroke-miterlimit="1.5" stroke-linecap="round" stroke-linejoin="round" stroke-dasharray="16 16"/>
<path id="A11-A12-TETandRIS" d="M1402 1623.51V1356.8C1402 1352.38 1405.58 1348.8 1410 1348.8H1495.77C1500.19 1348.8 1503.77 1345.22 1503.77 1340.8V1087.51C1503.77 1083.09 1507.36 1079.51 1511.77 1079.51H1730C1734.42 1079.51 1738 1083.09 1738 1087.51V1623.51C1738 1627.93 1734.42 1631.51 1730 1631.51H1410C1405.58 1631.51 1402 1627.93 1402 1623.51Z" fill="white" stroke="#CCFF00" stroke-width="8" stroke-miterlimit="1.5" stroke-linecap="round" stroke-linejoin="round" stroke-dasharray="16 16"/>
<path id="A.6-Muted" d="M626 1224.43H808C812.418 1224.43 816 1228.01 816 1232.43V1622.59C816 1627.01 812.418 1630.59 808 1630.59H626C621.582 1630.59 618 1627.01 618 1622.59V1232.43C618 1228.01 621.582 1224.43 626 1224.43Z" fill="white" stroke="#CCFF00" stroke-width="8" stroke-miterlimit="1.5" stroke-linecap="round" stroke-linejoin="round" stroke-dasharray="16 16"/>
<path id="A5-Makers_Space" d="M456 1351.51H595C599.418 1351.51 603 1355.09 603 1359.51V1623.51C603 1627.93 599.418 1631.51 595 1631.51H456C451.582 1631.51 448 1627.93 448 1623.51V1359.51C448 1355.09 451.582 1351.51 456 1351.51Z" fill="white" stroke="#CCFF00" stroke-width="8" stroke-miterlimit="1.5" stroke-linecap="round" stroke-linejoin="round" stroke-dasharray="16 16"/>
<path id="A3-Hive" d="M4 1623.51V1185.51C4 1181.09 7.58173 1177.51 12 1177.51H243.15C247.569 1177.51 251.15 1181.09 251.15 1185.51V1341.77C251.15 1346.19 254.732 1349.77 259.15 1349.77H425C429.418 1349.77 433 1353.35 433 1357.77V1623.51C433 1627.93 429.418 1631.51 425 1631.51H12C7.58173 1631.51 4 1627.93 4 1623.51Z" fill="white" stroke="#CCFF00" stroke-width="8" stroke-miterlimit="1.5" stroke-linecap="round" stroke-linejoin="round" stroke-dasharray="16 16"/>
<path id="A.2-Jungle" d="M12 842.648H250C254.418 842.648 258 846.229 258 850.648V1145.38C258 1149.79 254.418 1153.38 250 1153.38H12C7.58173 1153.38 4 1149.79 4 1145.38V850.648C4 846.229 7.58171 842.648 12 842.648Z" fill="white" stroke="#CCFF00" stroke-width="8" stroke-miterlimit="1.5" stroke-linecap="round" stroke-linejoin="round" stroke-dasharray="16 16"/>
<path id="A1-Babylon" d="M12 645.543H250C254.418 645.543 258 649.125 258 653.543V813.48C258 817.898 254.418 821.48 250 821.48H12C7.58173 821.48 4 817.898 4 813.48V653.543C4 649.125 7.58171 645.543 12 645.543Z" fill="white" stroke="#CCFF00" stroke-width="8" stroke-miterlimit="1.5" stroke-linecap="round" stroke-linejoin="round" stroke-dasharray="16 16"/>
</g>
</g>
</svg>
