<svg width="2033" height="1636" viewBox="0 0 2033 1636" fill="none" xmlns="http://www.w3.org/2000/svg">
<g id="dbugmap-2">
<g id="rooms">
<path id="Restrooms_exits_01" d="M1216 1631.77H863C858.582 1631.77 855 1628.19 855 1623.77V1316.75C855 1312.33 858.582 1308.75 863 1308.75H1216C1220.42 1308.75 1224 1312.33 1224 1316.75V1623.77C1224 1628.19 1220.42 1631.77 1216 1631.77Z" fill="white" stroke="#00C8FF" stroke-width="8" stroke-miterlimit="1.5" stroke-linecap="round" stroke-linejoin="round" stroke-dasharray="16 16"/>
<path id="Restrooms_exits_02" d="M1188 387.516H812C807.582 387.516 804 383.934 804 379.516V11.9999C804 7.58167 807.582 3.99994 812 3.99994H1188C1192.42 3.99994 1196 7.58167 1196 11.9999V379.516C1196 383.934 1192.42 387.516 1188 387.516Z" fill="white" stroke="#00C8FF" stroke-width="8" stroke-miterlimit="1.5" stroke-linecap="round" stroke-linejoin="round" stroke-dasharray="16 16"/>
<path id="Oxygen" d="M742 1631.53H12C7.58172 1631.53 4 1627.95 4 1623.53V1454.98C4 1450.57 7.58174 1446.98 12 1446.98H742C746.418 1446.98 750 1450.57 750 1454.98V1623.53C750 1627.95 746.418 1631.53 742 1631.53Z" fill="white" stroke="#00C8FF" stroke-width="8" stroke-miterlimit="1.5" stroke-linecap="round" stroke-linejoin="round" stroke-dasharray="16 16"/>
<path id="Lifts" d="M1484 955.389H1403C1398.58 955.389 1395 951.808 1395 947.389V773.126C1395 768.708 1398.58 765.126 1403 765.126H1484C1488.42 765.126 1492 768.708 1492 773.126V947.389C1492 951.808 1488.42 955.389 1484 955.389Z" fill="white" stroke="#00C8FF" stroke-width="8" stroke-miterlimit="1.5" stroke-linecap="round" stroke-linejoin="round" stroke-dasharray="16 16"/>
<path id="Hydrogen" d="M277 782.955H12C7.58172 782.955 4 779.373 4 774.955V569.561C4 565.142 7.58172 561.561 12 561.561H277C281.418 561.561 285 565.142 285 569.561V774.955C285 779.373 281.418 782.955 277 782.955Z" fill="white" stroke="#00C8FF" stroke-width="8" stroke-miterlimit="1.5" stroke-linecap="round" stroke-linejoin="round" stroke-dasharray="16 16"/>
<path id="Cantina-Kitchen" d="M742 1427.85H12C7.58172 1427.85 4 1424.27 4 1419.85V1260.66C4 1256.24 7.58174 1252.66 12 1252.66H742C746.418 1252.66 750 1256.24 750 1260.66V1419.85C750 1424.27 746.418 1427.85 742 1427.85Z" fill="white" stroke="#00C8FF" stroke-width="8" stroke-miterlimit="1.5" stroke-linecap="round" stroke-linejoin="round" stroke-dasharray="16 16"/>
<path id="Alexandria-Library" d="M819 824.353H584C579.582 824.353 576 820.771 576 816.353V612.163C576 607.744 579.582 604.163 584 604.163H819C823.418 604.163 827 607.744 827 612.163V816.353C827 820.771 823.418 824.353 819 824.353Z" fill="white" stroke="#00C8FF" stroke-width="8" stroke-miterlimit="1.5" stroke-linecap="round" stroke-linejoin="round" stroke-dasharray="16 16"/>
<path id="B23-Pluto_Family_Room" d="M1511 1207.38H1385C1380.58 1207.38 1377 1203.79 1377 1199.38V1115.14C1377 1110.72 1380.58 1107.14 1385 1107.14H1511C1515.42 1107.14 1519 1110.72 1519 1115.14V1199.38C1519 1203.79 1515.42 1207.38 1511 1207.38Z" fill="white" stroke="#00C8FF" stroke-width="8" stroke-miterlimit="1.5" stroke-linecap="round" stroke-linejoin="round" stroke-dasharray="16 16"/>
<path id="B22-Artemis-Student_SErvice_DEsk" d="M1666 1207.31H1536C1531.58 1207.31 1528 1203.73 1528 1199.31V1115.2C1528 1110.78 1531.58 1107.2 1536 1107.2H1666C1670.42 1107.2 1674 1110.78 1674 1115.2V1199.31C1674 1203.73 1670.42 1207.31 1666 1207.31Z" fill="white" stroke="#00C8FF" stroke-width="8" stroke-miterlimit="1.5" stroke-linecap="round" stroke-linejoin="round" stroke-dasharray="16 16"/>
<path id="B.19" d="M1360 1207.54H1235C1230.58 1207.54 1227 1203.96 1227 1199.54V1078.98C1227 1074.56 1230.58 1070.98 1235 1070.98H1360C1364.42 1070.98 1368 1074.56 1368 1078.98V1199.54C1368 1203.96 1364.42 1207.54 1360 1207.54Z" fill="white" stroke="#00C8FF" stroke-width="8" stroke-miterlimit="1.5" stroke-linecap="round" stroke-linejoin="round" stroke-dasharray="16 16"/>
<path id="B.18" d="M1210 1207.13H1092C1087.58 1207.13 1084 1203.54 1084 1199.13V1077.39C1084 1072.97 1087.58 1069.39 1092 1069.39H1210C1214.42 1069.39 1218 1072.97 1218 1077.39V1199.13C1218 1203.54 1214.42 1207.13 1210 1207.13Z" fill="white" stroke="#00C8FF" stroke-width="8" stroke-miterlimit="1.5" stroke-linecap="round" stroke-linejoin="round" stroke-dasharray="16 16"/>
<path id="B.17" d="M1067 1206.92H863C858.582 1206.92 855 1203.34 855 1198.92V1078.59C855 1074.17 858.582 1070.59 863 1070.59H1067C1071.42 1070.59 1075 1074.17 1075 1078.59V1198.92C1075 1203.34 1071.42 1206.92 1067 1206.92Z" fill="white" stroke="#00C8FF" stroke-width="8" stroke-miterlimit="1.5" stroke-linecap="round" stroke-linejoin="round" stroke-dasharray="16 16"/>
<path id="B.16-Otter_Space" d="M819 1207.23H716C711.582 1207.23 708 1203.65 708 1199.23V1119.29C708 1114.87 711.582 1111.29 716 1111.29H819C823.418 1111.29 827 1114.87 827 1119.29V1199.23C827 1203.65 823.418 1207.23 819 1207.23Z" fill="white" stroke="#00C8FF" stroke-width="8" stroke-miterlimit="1.5" stroke-linecap="round" stroke-linejoin="round" stroke-dasharray="16 16"/>
<path id="B.15-Cape_Canaveral" d="M684 1207.63H580C575.582 1207.63 572 1204.05 572 1199.63V1118.88C572 1114.47 575.582 1110.88 580 1110.88H684C688.418 1110.88 692 1114.47 692 1118.88V1199.63C692 1204.05 688.418 1207.63 684 1207.63Z" fill="white" stroke="#00C8FF" stroke-width="8" stroke-miterlimit="1.5" stroke-linecap="round" stroke-linejoin="round" stroke-dasharray="16 16"/>
<path id="B.14-Dark_Matter" d="M819 1096.26H584C579.582 1096.26 576 1092.68 576 1088.26V842.258C576 837.84 579.582 834.258 584 834.258H819C823.418 834.258 827 837.84 827 842.258V1088.26C827 1092.68 823.418 1096.26 819 1096.26Z" fill="white" stroke="#00C8FF" stroke-width="8" stroke-miterlimit="1.5" stroke-linecap="round" stroke-linejoin="round" stroke-dasharray="16 16"/>
<path id="B12-Hans_Zimmer" d="M669 556.258H584C579.582 556.258 576 552.676 576 548.258V483.258C576 478.84 579.582 475.258 584 475.258H669C673.418 475.258 677 478.84 677 483.258V548.258C677 552.676 673.418 556.258 669 556.258Z" fill="white" stroke="#00C8FF" stroke-width="8" stroke-miterlimit="1.5" stroke-linecap="round" stroke-linejoin="round" stroke-dasharray="16 16"/>
<path id="B10-MF_Room" d="M819 556.258H734C729.582 556.258 726 552.676 726 548.258V483.258C726 478.84 729.582 475.258 734 475.258H819C823.418 475.258 827 478.84 827 483.258V548.258C827 552.676 823.418 556.258 819 556.258Z" fill="white" stroke="#00C8FF" stroke-width="8" stroke-miterlimit="1.5" stroke-linecap="round" stroke-linejoin="round" stroke-dasharray="16 16"/>
<path id="B7-W(room)" d="M1086 609.188H1004C999.582 609.188 996 605.606 996 601.188V508.328C996 503.909 999.582 500.328 1004 500.328H1086C1090.42 500.328 1094 503.909 1094 508.328V601.188C1094 605.606 1090.42 609.188 1086 609.188Z" fill="white" stroke="#00C8FF" stroke-width="8" stroke-miterlimit="1.5" stroke-linecap="round" stroke-linejoin="round" stroke-dasharray="16 16"/>
<path id="B6-After" d="M1159 609.484H1112C1107.58 609.484 1104 605.903 1104 601.484V508.031C1104 503.613 1107.58 500.031 1112 500.031H1159C1163.42 500.031 1167 503.613 1167 508.031V601.484C1167 605.903 1163.42 609.484 1159 609.484Z" fill="white" stroke="#00C8FF" stroke-width="8" stroke-miterlimit="1.5" stroke-linecap="round" stroke-linejoin="round" stroke-dasharray="16 16"/>
<path id="B5-Present" d="M1270 608.335H1185C1180.58 608.335 1177 604.753 1177 600.335V508.18C1177 503.762 1180.58 500.18 1185 500.18H1270C1274.42 500.18 1278 503.762 1278 508.18V600.335C1278 604.753 1274.42 608.335 1270 608.335Z" fill="white" stroke="#00C8FF" stroke-width="8" stroke-miterlimit="1.5" stroke-linecap="round" stroke-linejoin="round" stroke-dasharray="16 16"/>
<path id="B4" d="M1405 590.258H1296C1291.58 590.258 1288 586.676 1288 582.258V508.258C1288 503.84 1291.58 500.258 1296 500.258H1405C1409.42 500.258 1413 503.84 1413 508.258V582.258C1413 586.676 1409.42 590.258 1405 590.258Z" fill="white" stroke="#00C8FF" stroke-width="8" stroke-miterlimit="1.5" stroke-linecap="round" stroke-linejoin="round" stroke-dasharray="16 16"/>
<path id="B3-Peace" d="M1545 590.258H1431C1426.58 590.258 1423 586.676 1423 582.258V509.258C1423 504.84 1426.58 501.258 1431 501.258H1545C1549.42 501.258 1553 504.84 1553 509.258V582.258C1553 586.676 1549.42 590.258 1545 590.258Z" fill="white" stroke="#00C8FF" stroke-width="8" stroke-miterlimit="1.5" stroke-linecap="round" stroke-linejoin="round" stroke-dasharray="16 16"/>
<path id="B2-Aang" d="M1543.19 714.258H1403.19C1398.7 714.258 1395.09 710.56 1395.19 706.07L1396.82 637.07C1396.92 632.726 1400.47 629.258 1404.81 629.258H1544.81C1549.3 629.258 1552.91 632.955 1552.81 637.446L1551.18 706.446C1551.08 710.79 1547.53 714.258 1543.19 714.258Z" fill="white" stroke="#00C8FF" stroke-width="8" stroke-miterlimit="1.5" stroke-linecap="round" stroke-linejoin="round" stroke-dasharray="16 16"/>
<path id="A.26" d="M2021 1207.3H1783C1778.58 1207.3 1775 1203.72 1775 1199.3V1019.22C1775 1014.8 1778.58 1011.22 1783 1011.22H2021C2025.42 1011.22 2029 1014.8 2029 1019.22V1199.3C2029 1203.72 2025.42 1207.3 2021 1207.3Z" fill="white" stroke="#00C8FF" stroke-width="8" stroke-miterlimit="1.5" stroke-linecap="round" stroke-linejoin="round" stroke-dasharray="16 16"/>
<path id="A.25" d="M2021 1420.08H1783C1778.58 1420.08 1775 1416.5 1775 1412.08V1236.43C1775 1232.01 1778.58 1228.43 1783 1228.43H2021C2025.42 1228.43 2029 1232.01 2029 1236.43V1412.08C2029 1416.5 2025.42 1420.08 2021 1420.08Z" fill="white" stroke="#00C8FF" stroke-width="8" stroke-miterlimit="1.5" stroke-linecap="round" stroke-linejoin="round" stroke-dasharray="16 16"/>
<path id="A24-Pandora" d="M2021 1630.98H1724C1719.58 1630.98 1716 1627.4 1716 1622.98V1449.54C1716 1445.12 1719.58 1441.54 1724 1441.54H2021C2025.42 1441.54 2029 1445.12 2029 1449.54V1622.98C2029 1627.4 2025.42 1630.98 2021 1630.98Z" fill="white" stroke="#00C8FF" stroke-width="8" stroke-miterlimit="1.5" stroke-linecap="round" stroke-linejoin="round" stroke-dasharray="16 16"/>
<path id="A.23" d="M1291 955.258H935C930.582 955.258 927 951.676 927 947.258V703.258C927 698.84 930.582 695.258 935 695.258H1291C1295.42 695.258 1299 698.84 1299 703.258V947.258C1299 951.676 1295.42 955.258 1291 955.258Z" fill="white" stroke="#00C8FF" stroke-width="8" stroke-miterlimit="1.5" stroke-linecap="round" stroke-linejoin="round" stroke-dasharray="16 16"/>
<path id="A14-Houston" d="M537 1207.26H303C298.582 1207.26 295 1203.68 295 1199.26V796.258C295 791.839 298.582 788.258 303 788.258H537C541.418 788.258 545 791.839 545 796.258V1199.26C545 1203.68 541.418 1207.26 537 1207.26Z" fill="white" stroke="#00C8FF" stroke-width="8" stroke-miterlimit="1.5" stroke-linecap="round" stroke-linejoin="round" stroke-dasharray="16 16"/>
<path id="A11-A12-TETandRIS" d="M631 12.2578V278.97C631 283.388 627.418 286.97 623 286.97H537.225C532.807 286.97 529.225 290.552 529.225 294.97V548.258C529.225 552.676 525.643 556.258 521.225 556.258H303C298.582 556.258 295 552.676 295 548.258V12.2578C295 7.83954 298.582 4.25781 303 4.25781H623C627.418 4.25781 631 7.83954 631 12.2578Z" fill="white" stroke="#00C8FF" stroke-width="8" stroke-miterlimit="1.5" stroke-linecap="round" stroke-linejoin="round" stroke-dasharray="16 16"/>
<path id="A.6-Muted" d="M1407 411.34H1225C1220.58 411.34 1217 407.758 1217 403.34V13.1752C1217 8.7569 1220.58 5.17517 1225 5.17517H1407C1411.42 5.17517 1415 8.7569 1415 13.1752V403.34C1415 407.758 1411.42 411.34 1407 411.34Z" fill="white" stroke="#00C8FF" stroke-width="8" stroke-miterlimit="1.5" stroke-linecap="round" stroke-linejoin="round" stroke-dasharray="16 16"/>
<path id="A5-Makers_Space" d="M1577 284.258H1438C1433.58 284.258 1430 280.676 1430 276.258V12.2578C1430 7.83954 1433.58 4.25781 1438 4.25781H1577C1581.42 4.25781 1585 7.83954 1585 12.2578V276.258C1585 280.676 1581.42 284.258 1577 284.258Z" fill="white" stroke="#00C8FF" stroke-width="8" stroke-miterlimit="1.5" stroke-linecap="round" stroke-linejoin="round" stroke-dasharray="16 16"/>
<path id="A3-Hive" d="M2029 12.2578V450.258C2029 454.676 2025.42 458.258 2021 458.258H1789.85C1785.43 458.258 1781.85 454.676 1781.85 450.258V294C1781.85 289.582 1778.27 286 1773.85 286H1608C1603.58 286 1600 282.419 1600 278V12.2578C1600 7.83954 1603.58 4.25781 1608 4.25781H2021C2025.42 4.25781 2029 7.83954 2029 12.2578Z" fill="white" stroke="#00C8FF" stroke-width="8" stroke-miterlimit="1.5" stroke-linecap="round" stroke-linejoin="round" stroke-dasharray="16 16"/>
<path id="A.2-Jungle" d="M2021 793.121H1783C1778.58 793.121 1775 789.54 1775 785.121V490.394C1775 485.976 1778.58 482.394 1783 482.394H2021C2025.42 482.394 2029 485.976 2029 490.394V785.121C2029 789.54 2025.42 793.121 2021 793.121Z" fill="white" stroke="#00C8FF" stroke-width="8" stroke-miterlimit="1.5" stroke-linecap="round" stroke-linejoin="round" stroke-dasharray="16 16"/>
<path id="A1-Babylon" d="M2021 990.226H1783C1778.58 990.226 1775 986.644 1775 982.226V822.289C1775 817.871 1778.58 814.289 1783 814.289H2021C2025.42 814.289 2029 817.871 2029 822.289V982.226C2029 986.644 2025.42 990.226 2021 990.226Z" fill="white" stroke="#00C8FF" stroke-width="8" stroke-miterlimit="1.5" stroke-linecap="round" stroke-linejoin="round" stroke-dasharray="16 16"/>
</g>
</g>
</svg>
