<svg width="2033" height="1636" viewBox="0 0 2033 1636" fill="none" xmlns="http://www.w3.org/2000/svg">
<g id="dbugmap-3">
<g id="rooms">
<path id="Restrooms_exits_01" d="M817 1631.77H1170C1174.42 1631.77 1178 1628.19 1178 1623.77V1316.75C1178 1312.33 1174.42 1308.75 1170 1308.75H817C812.582 1308.75 809 1312.33 809 1316.75V1623.77C809 1628.19 812.582 1631.77 817 1631.77Z" fill="white" stroke="#00FF44" stroke-width="8" stroke-miterlimit="1.5" stroke-linecap="round" stroke-linejoin="round" stroke-dasharray="16 16"/>
<path id="Restrooms_exits_02" d="M845 387.516H1221C1225.42 387.516 1229 383.934 1229 379.516V11.9999C1229 7.58167 1225.42 3.99994 1221 3.99994H845C840.582 3.99994 837 7.58167 837 11.9999V379.516C837 383.934 840.582 387.516 845 387.516Z" fill="white" stroke="#00FF44" stroke-width="8" stroke-miterlimit="1.5" stroke-linecap="round" stroke-linejoin="round" stroke-dasharray="16 16"/>
<path id="Oxygen" d="M1291 1631.53H2021C2025.42 1631.53 2029 1627.95 2029 1623.53V1454.98C2029 1450.57 2025.42 1446.98 2021 1446.98H1291C1286.58 1446.98 1283 1450.57 1283 1454.98V1623.53C1283 1627.95 1286.58 1631.53 1291 1631.53Z" fill="white" stroke="#00FF44" stroke-width="8" stroke-miterlimit="1.5" stroke-linecap="round" stroke-linejoin="round" stroke-dasharray="16 16"/>
<path id="Lifts" d="M549 955.39H630C634.418 955.39 638 951.808 638 947.39V773.126C638 768.708 634.418 765.126 630 765.126H549C544.582 765.126 541 768.708 541 773.126V947.39C541 951.808 544.582 955.39 549 955.39Z" fill="white" stroke="#00FF44" stroke-width="8" stroke-miterlimit="1.5" stroke-linecap="round" stroke-linejoin="round" stroke-dasharray="16 16"/>
<path id="Hydrogen" d="M1756 782.955H2021C2025.42 782.955 2029 779.373 2029 774.955V569.561C2029 565.143 2025.42 561.561 2021 561.561H1756C1751.58 561.561 1748 565.143 1748 569.561V774.955C1748 779.373 1751.58 782.955 1756 782.955Z" fill="white" stroke="#00FF44" stroke-width="8" stroke-miterlimit="1.5" stroke-linecap="round" stroke-linejoin="round" stroke-dasharray="16 16"/>
<path id="Cantina-Kitchen" d="M1291 1427.85H2021C2025.42 1427.85 2029 1424.27 2029 1419.85V1260.66C2029 1256.24 2025.42 1252.66 2021 1252.66H1291C1286.58 1252.66 1283 1256.24 1283 1260.66V1419.85C1283 1424.27 1286.58 1427.85 1291 1427.85Z" fill="white" stroke="#00FF44" stroke-width="8" stroke-miterlimit="1.5" stroke-linecap="round" stroke-linejoin="round" stroke-dasharray="16 16"/>
<path id="Alexandria-Library" d="M1214 824.353H1449C1453.42 824.353 1457 820.771 1457 816.353V612.163C1457 607.745 1453.42 604.163 1449 604.163H1214C1209.58 604.163 1206 607.745 1206 612.163V816.353C1206 820.771 1209.58 824.353 1214 824.353Z" fill="white" stroke="#00FF44" stroke-width="8" stroke-miterlimit="1.5" stroke-linecap="round" stroke-linejoin="round" stroke-dasharray="16 16"/>
<path id="B23-Pluto_Family_Room" d="M522 1207.38H648C652.418 1207.38 656 1203.79 656 1199.38V1115.14C656 1110.72 652.418 1107.14 648 1107.14H522C517.582 1107.14 514 1110.72 514 1115.14V1199.38C514 1203.79 517.582 1207.38 522 1207.38Z" fill="white" stroke="#00FF44" stroke-width="8" stroke-miterlimit="1.5" stroke-linecap="round" stroke-linejoin="round" stroke-dasharray="16 16"/>
<path id="B22-Artemis-Student_SErvice_DEsk" d="M367 1207.31H497C501.418 1207.31 505 1203.73 505 1199.31V1115.2C505 1110.78 501.418 1107.2 497 1107.2H367C362.582 1107.2 359 1110.78 359 1115.2V1199.31C359 1203.73 362.582 1207.31 367 1207.31Z" fill="white" stroke="#00FF44" stroke-width="8" stroke-miterlimit="1.5" stroke-linecap="round" stroke-linejoin="round" stroke-dasharray="16 16"/>
<path id="B.19" d="M673 1207.54H798C802.418 1207.54 806 1203.96 806 1199.54V1078.98C806 1074.56 802.418 1070.98 798 1070.98H673C668.582 1070.98 665 1074.56 665 1078.98V1199.54C665 1203.96 668.582 1207.54 673 1207.54Z" fill="white" stroke="#00FF44" stroke-width="8" stroke-miterlimit="1.5" stroke-linecap="round" stroke-linejoin="round" stroke-dasharray="16 16"/>
<path id="B.18" d="M823 1207.13H941C945.418 1207.13 949 1203.54 949 1199.13V1077.39C949 1072.97 945.418 1069.39 941 1069.39H823C818.582 1069.39 815 1072.97 815 1077.39V1199.13C815 1203.54 818.582 1207.13 823 1207.13Z" fill="white" stroke="#00FF44" stroke-width="8" stroke-miterlimit="1.5" stroke-linecap="round" stroke-linejoin="round" stroke-dasharray="16 16"/>
<path id="B.17" d="M966 1206.92H1170C1174.42 1206.92 1178 1203.34 1178 1198.92V1078.59C1178 1074.17 1174.42 1070.59 1170 1070.59H966C961.582 1070.59 958 1074.17 958 1078.59V1198.92C958 1203.34 961.582 1206.92 966 1206.92Z" fill="white" stroke="#00FF44" stroke-width="8" stroke-miterlimit="1.5" stroke-linecap="round" stroke-linejoin="round" stroke-dasharray="16 16"/>
<path id="B.16-Otter_Space" d="M1214 1207.23H1317C1321.42 1207.23 1325 1203.65 1325 1199.23V1119.29C1325 1114.87 1321.42 1111.29 1317 1111.29H1214C1209.58 1111.29 1206 1114.87 1206 1119.29V1199.23C1206 1203.65 1209.58 1207.23 1214 1207.23Z" fill="white" stroke="#00FF44" stroke-width="8" stroke-miterlimit="1.5" stroke-linecap="round" stroke-linejoin="round" stroke-dasharray="16 16"/>
<path id="B.15-Cape_Canaveral" d="M1349 1207.63H1453C1457.42 1207.63 1461 1204.05 1461 1199.63V1118.88C1461 1114.47 1457.42 1110.88 1453 1110.88H1349C1344.58 1110.88 1341 1114.47 1341 1118.88V1199.63C1341 1204.05 1344.58 1207.63 1349 1207.63Z" fill="white" stroke="#00FF44" stroke-width="8" stroke-miterlimit="1.5" stroke-linecap="round" stroke-linejoin="round" stroke-dasharray="16 16"/>
<path id="B.14-Dark_Matter" d="M1214 1096.26H1449C1453.42 1096.26 1457 1092.68 1457 1088.26V842.258C1457 837.84 1453.42 834.258 1449 834.258H1214C1209.58 834.258 1206 837.84 1206 842.258V1088.26C1206 1092.68 1209.58 1096.26 1214 1096.26Z" fill="white" stroke="#00FF44" stroke-width="8" stroke-miterlimit="1.5" stroke-linecap="round" stroke-linejoin="round" stroke-dasharray="16 16"/>
<path id="B12-Hans_Zimmer" d="M1364 556.258H1449C1453.42 556.258 1457 552.676 1457 548.258V483.258C1457 478.84 1453.42 475.258 1449 475.258H1364C1359.58 475.258 1356 478.84 1356 483.258V548.258C1356 552.676 1359.58 556.258 1364 556.258Z" fill="white" stroke="#00FF44" stroke-width="8" stroke-miterlimit="1.5" stroke-linecap="round" stroke-linejoin="round" stroke-dasharray="16 16"/>
<path id="B10-MF_Room" d="M1214 556.258H1299C1303.42 556.258 1307 552.676 1307 548.258V483.258C1307 478.84 1303.42 475.258 1299 475.258H1214C1209.58 475.258 1206 478.84 1206 483.258V548.258C1206 552.676 1209.58 556.258 1214 556.258Z" fill="white" stroke="#00FF44" stroke-width="8" stroke-miterlimit="1.5" stroke-linecap="round" stroke-linejoin="round" stroke-dasharray="16 16"/>
<path id="B7-W(room)" d="M947 609.188H1029C1033.42 609.188 1037 605.606 1037 601.188V508.328C1037 503.91 1033.42 500.328 1029 500.328H947C942.582 500.328 939 503.91 939 508.328V601.188C939 605.606 942.582 609.188 947 609.188Z" fill="white" stroke="#00FF44" stroke-width="8" stroke-miterlimit="1.5" stroke-linecap="round" stroke-linejoin="round" stroke-dasharray="16 16"/>
<path id="B6-After" d="M874 609.484H921C925.418 609.484 929 605.903 929 601.484V508.031C929 503.613 925.418 500.031 921 500.031H874C869.582 500.031 866 503.613 866 508.031V601.484C866 605.903 869.582 609.484 874 609.484Z" fill="white" stroke="#00FF44" stroke-width="8" stroke-miterlimit="1.5" stroke-linecap="round" stroke-linejoin="round" stroke-dasharray="16 16"/>
<path id="B5-Present" d="M763 608.335H848C852.418 608.335 856 604.754 856 600.335V508.18C856 503.762 852.418 500.18 848 500.18H763C758.582 500.18 755 503.762 755 508.18V600.335C755 604.754 758.582 608.335 763 608.335Z" fill="white" stroke="#00FF44" stroke-width="8" stroke-miterlimit="1.5" stroke-linecap="round" stroke-linejoin="round" stroke-dasharray="16 16"/>
<path id="B4" d="M628 590.258H737C741.418 590.258 745 586.676 745 582.258V508.258C745 503.84 741.418 500.258 737 500.258H628C623.582 500.258 620 503.84 620 508.258V582.258C620 586.676 623.582 590.258 628 590.258Z" fill="white" stroke="#00FF44" stroke-width="8" stroke-miterlimit="1.5" stroke-linecap="round" stroke-linejoin="round" stroke-dasharray="16 16"/>
<path id="B3-Peace" d="M488 590.258H602C606.418 590.258 610 586.676 610 582.258V509.258C610 504.84 606.418 501.258 602 501.258H488C483.582 501.258 480 504.84 480 509.258V582.258C480 586.676 483.582 590.258 488 590.258Z" fill="white" stroke="#00FF44" stroke-width="8" stroke-miterlimit="1.5" stroke-linecap="round" stroke-linejoin="round" stroke-dasharray="16 16"/>
<path id="B2-Aang" d="M489.814 714.258H629.81C634.302 714.258 637.913 710.56 637.807 706.07L636.184 637.07C636.082 632.726 632.531 629.258 628.186 629.258H488.19C483.699 629.258 480.087 632.955 480.193 637.446L481.816 706.446C481.918 710.79 485.469 714.258 489.814 714.258Z" fill="white" stroke="#00FF44" stroke-width="8" stroke-miterlimit="1.5" stroke-linecap="round" stroke-linejoin="round" stroke-dasharray="16 16"/>
<path id="A.26" d="M12 1207.3H250C254.418 1207.3 258 1203.72 258 1199.3V1019.22C258 1014.8 254.418 1011.22 250 1011.22H12C7.58173 1011.22 4 1014.8 4 1019.22V1199.3C4 1203.72 7.58171 1207.3 12 1207.3Z" fill="white" stroke="#00FF44" stroke-width="8" stroke-miterlimit="1.5" stroke-linecap="round" stroke-linejoin="round" stroke-dasharray="16 16"/>
<path id="A.25" d="M12 1420.08H250C254.418 1420.08 258 1416.5 258 1412.08V1236.43C258 1232.01 254.418 1228.43 250 1228.43H12C7.58173 1228.43 4 1232.01 4 1236.43V1412.08C4 1416.5 7.58171 1420.08 12 1420.08Z" fill="white" stroke="#00FF44" stroke-width="8" stroke-miterlimit="1.5" stroke-linecap="round" stroke-linejoin="round" stroke-dasharray="16 16"/>
<path id="A24-Pandora" d="M12 1630.98H309C313.418 1630.98 317 1627.4 317 1622.98V1449.54C317 1445.12 313.418 1441.54 309 1441.54H12C7.58173 1441.54 4 1445.12 4 1449.54V1622.98C4 1627.4 7.58173 1630.98 12 1630.98Z" fill="white" stroke="#00FF44" stroke-width="8" stroke-miterlimit="1.5" stroke-linecap="round" stroke-linejoin="round" stroke-dasharray="16 16"/>
<path id="A.23" d="M742 955.258H1098C1102.42 955.258 1106 951.676 1106 947.258V703.258C1106 698.84 1102.42 695.258 1098 695.258H742C737.582 695.258 734 698.84 734 703.258V947.258C734 951.676 737.582 955.258 742 955.258Z" fill="white" stroke="#00FF44" stroke-width="8" stroke-miterlimit="1.5" stroke-linecap="round" stroke-linejoin="round" stroke-dasharray="16 16"/>
<path id="A14-Houston" d="M1496 1207.26H1730C1734.42 1207.26 1738 1203.68 1738 1199.26V796.258C1738 791.84 1734.42 788.258 1730 788.258H1496C1491.58 788.258 1488 791.84 1488 796.258V1199.26C1488 1203.68 1491.58 1207.26 1496 1207.26Z" fill="white" stroke="#00FF44" stroke-width="8" stroke-miterlimit="1.5" stroke-linecap="round" stroke-linejoin="round" stroke-dasharray="16 16"/>
<path id="A11-A12-TETandRIS" d="M1402 12.2578V278.97C1402 283.388 1405.58 286.97 1410 286.97H1495.77C1500.19 286.97 1503.77 290.552 1503.77 294.97V548.258C1503.77 552.676 1507.36 556.258 1511.77 556.258H1730C1734.42 556.258 1738 552.676 1738 548.258V12.2578C1738 7.83954 1734.42 4.25781 1730 4.25781H1410C1405.58 4.25781 1402 7.83954 1402 12.2578Z" fill="white" stroke="#00FF44" stroke-width="8" stroke-miterlimit="1.5" stroke-linecap="round" stroke-linejoin="round" stroke-dasharray="16 16"/>
<path id="A.6-Muted" d="M626 411.34H808C812.418 411.34 816 407.758 816 403.34V13.1752C816 8.7569 812.418 5.17517 808 5.17517H626C621.582 5.17517 618 8.7569 618 13.1752V403.34C618 407.758 621.582 411.34 626 411.34Z" fill="white" stroke="#00FF44" stroke-width="8" stroke-miterlimit="1.5" stroke-linecap="round" stroke-linejoin="round" stroke-dasharray="16 16"/>
<path id="A5-Makers_Space" d="M456 284.258H595C599.418 284.258 603 280.676 603 276.258V12.2578C603 7.83954 599.418 4.25781 595 4.25781H456C451.582 4.25781 448 7.83954 448 12.2578V276.258C448 280.676 451.582 284.258 456 284.258Z" fill="white" stroke="#00FF44" stroke-width="8" stroke-miterlimit="1.5" stroke-linecap="round" stroke-linejoin="round" stroke-dasharray="16 16"/>
<path id="A3-Hive" d="M4 12.2578V450.258C4 454.676 7.58173 458.258 12 458.258H243.15C247.569 458.258 251.15 454.676 251.15 450.258V294C251.15 289.582 254.732 286 259.15 286H425C429.418 286 433 282.419 433 278V12.2578C433 7.83954 429.418 4.25781 425 4.25781H12C7.58173 4.25781 4 7.83954 4 12.2578Z" fill="white" stroke="#00FF44" stroke-width="8" stroke-miterlimit="1.5" stroke-linecap="round" stroke-linejoin="round" stroke-dasharray="16 16"/>
<path id="A.2-Jungle" d="M12 793.122H250C254.418 793.122 258 789.54 258 785.122V490.394C258 485.976 254.418 482.394 250 482.394H12C7.58173 482.394 4 485.976 4 490.394V785.122C4 789.54 7.58171 793.122 12 793.122Z" fill="white" stroke="#00FF44" stroke-width="8" stroke-miterlimit="1.5" stroke-linecap="round" stroke-linejoin="round" stroke-dasharray="16 16"/>
<path id="A1-Babylon" d="M12 990.226H250C254.418 990.226 258 986.644 258 982.226V822.29C258 817.871 254.418 814.29 250 814.29H12C7.58173 814.29 4 817.871 4 822.29V982.226C4 986.644 7.58171 990.226 12 990.226Z" fill="white" stroke="#00FF44" stroke-width="8" stroke-miterlimit="1.5" stroke-linecap="round" stroke-linejoin="round" stroke-dasharray="16 16"/>
</g>
</g>
</svg>
